<?xml version="1.0" encoding="utf-8"?>
<!-- Generator: Adobe Illustrator 18.1.1, SVG Export Plug-In . SVG Version: 6.00 Build 0)  -->
<!DOCTYPE svg PUBLIC "-//W3C//DTD SVG 1.1//EN" "http://www.w3.org/Graphics/SVG/1.1/DTD/svg11.dtd">
<svg version="1.1" id="Layer_1" xmlns="http://www.w3.org/2000/svg" xmlns:xlink="http://www.w3.org/1999/xlink" x="0px" y="0px"
	 viewBox="0 0 300 135.3" enable-background="new 0 0 300 135.3" xml:space="preserve">
<linearGradient id="SVGID_1_" gradientUnits="userSpaceOnUse" x1="231.5867" y1="402.8467" x2="231.5867" y2="215.2867" gradientTransform="matrix(0.7212 0 0 -0.7212 -17.0096 290.5144)">
	<stop  offset="0" style="stop-color:#000000"/>
	<stop  offset="0.4733" style="stop-color:#0A0A0A"/>
	<stop  offset="0.6951" style="stop-color:#424242"/>
	<stop  offset="0.8766" style="stop-color:#050505"/>
</linearGradient>
<rect fill="url(#SVGID_1_)" width="300" height="135.3"/>
<g>
	<g>
		<path fill="#FFFFFF" stroke="#000000" stroke-width="3" stroke-linejoin="round" stroke-miterlimit="10" d="M58.8,36
			c3.8,0,6.7,4,8,11l0.6-0.4l-1.7-16.1c-0.7,1.1-1.2,1.3-2.2,1.3h-4.6H46h-1.1v0.8c0,0,0.4,0,1,0.3c0.9,0.4,1.9,1.4,2.1,4.2
			c0,0.2,0,0.5,0,0.8v36.9v0.1c0,3.1-1.2,4.3-2.2,4.8c-0.6,0.3-1,0.4-1,0.4v0.8h1H58h0.7v-0.8c0,0-0.4-0.1-0.7-0.3
			c-0.9-0.4-2.1-1.7-2.1-4.9V50h1.8c2.2,0,3.7,2.7,4.4,7.8l0.6-0.2l-1.2-17.5l-0.6,0.1c0,4-0.9,5.5-3.2,5.5h-1.7v-5.6
			C56,37,56.8,36,58.8,36z"/>
		<path fill="#FFFFFF" stroke="#000000" stroke-width="3" stroke-linejoin="round" stroke-miterlimit="10" d="M90.8,80
			c-3.5,0-3-5.3-3-7.3V38.3c0-2.9,0.4-5.6,3-5.6c2.4,0,3.2,2.7,3.2,5.6v34.5C94,74.5,94.3,80,90.8,80z M80.3,55.1
			c-3.4,0.9-7.7,5-7.7,5c1.7-12.4,7.7-21.7,7.7-21.7S80.3,46.4,80.3,55.1 M112.9,61.1c-0.9,4.6-1.7,7.3-3.5,10.5
			c-1.7,3.2-3.5,4.8-5.2,4.8c-1.4,0-2.2-1.2-2.4-3.8V37.9c0-3.8,1.2-4.5,2.2-5c0.1-0.1,0.2-0.1,0.3-0.1l0.4-0.1v-0.8h-0.6H77.2
			c-3.2,3.4-12,23.5-12,44.1c0,1.9-0.9,4.2-2.7,4.2v0.8h9.7v-0.8c-1.4-0.8-2.2-2.6-2.2-5.6c0-1.7,0.5-3.3,0.6-3.4
			c0.4-1.4,0.9-2.6,1.4-3.7c2.5-5.4,6-7.2,8.2-7.8c0,7.5,0,14.4,0,15.4c0,5-2.8,5-2.8,5v0.8h27.2h3.7c1.2,0,1.7,0.3,2.2,1.1l3-20.6
			L112.9,61.1"/>
		<path fill="#FFFFFF" stroke="#000000" stroke-width="3" stroke-linejoin="round" stroke-miterlimit="10" d="M134.9,61.1
			c-0.9,4.6-1.7,7.3-3.5,10.5c-1.7,3.2-3.4,4.8-5.2,4.8c-1.4,0-2.2-1.2-2.4-3.8V37.9c0-3.8,1.2-4.5,2.2-5c0.1-0.1,0.2-0.1,0.3-0.1
			l0.4-0.1v-0.8h-0.6h-12.3h-0.9v0.8c0,0,0.4,0,0.9,0.2c0.9,0.4,2.2,1.6,2.2,5l0,0l0,0v37l0,0l0,0c0,0.3,0,0.5,0,0.8
			c0,0.2-0.1,0.4-0.1,0.6c-0.3,2.1-1.3,3-2,3.5c-0.6,0.3-1,0.4-1,0.4v0.8h1h12.8h3.7c1.2,0,1.7,0.3,2.2,1.1l3-20.6L134.9,61.1z"/>
		<path fill="#FFFFFF" stroke="#000000" stroke-width="3" stroke-linejoin="round" stroke-miterlimit="10" d="M156.4,31.2l0.3,16.9
			l-0.6,0.1c-0.9-7.6-3.8-12.3-7.4-12.3c-2.3,0-4.1,2.4-4.1,5.4c0,2.5,0.8,3.8,3,5.2c0.4,0.3,1.4,1,3.1,2.2c1.2,0.9,2.2,1.6,3,2.2
			c1.2,0.8,2.1,1.8,2.8,2.9c1.7,2.5,2.7,6.5,2.7,10.7c0,9.9-5.2,17.2-12.3,17.2c-1.5,0-3.2-0.4-5.2-1.2c-1.8-0.6-1.9-0.7-2.2-0.7
			c-0.6,0-1.1,0.4-1.8,1.5l-0.9-20l0.6-0.1c0.7,4.9,1.5,7.7,3,10.5c1.8,3.4,3.9,5.1,6.3,5.1c3.2,0,5.6-3.5,5.6-8.1
			c0-3.8-1.2-5.3-5.6-8.1c-5.1-3.2-6.2-4.1-7.4-6.6c-1.2-2.2-1.8-5-1.8-8.1c0-8.6,4.4-14.7,10.6-14.7c1.2,0,2.2,0.2,4.3,0.9
			c1.3,0.4,1.7,0.4,2.2,0.4c0.6,0,1-0.2,1.4-0.9C156.3,31.5,156.3,31.3,156.4,31.2z"/>
		<path fill="#FFFFFF" stroke="#000000" stroke-width="3" stroke-linejoin="round" stroke-miterlimit="10" d="M201.6,74.5
			c0,4.3-1.4,5.6-3,5.6c-1.6,0-3-1.1-3-5.5V37.8c0-5.3,2.7-5.3,3-5.2l0,0l0,0l0,0l0,0c0.3,0,3,0.1,3,5.2V74.5z M220.5,63.3
			c-1.9,8.6-5.2,13.3-9,13.3c-2,0-2.7-1.3-2.7-5.2V49.9h1.7c2.2,0,3.7,2.7,4.3,7.6l0.6-0.1l-1.1-17.2l-0.5,0.1l-0.1,0.8
			c-0.4,3.5-1.2,4.6-3.2,4.6h-1.7v-5.6c0-3.1,0.6-4.2,2.6-4.2c3.5,0,6.3,4.3,7.2,11.1l0.5-0.2l-1.4-16.4c-0.4,1.2-0.8,1.4-2.1,1.4
			h-38.8v0.8c0,0,2.2,0.7,1.9,3.7c0,0.4-0.1,1.2-0.2,2.2L174,67.3l-3.9-28.3c-0.1-1.2-0.1-2.1-0.2-2.7c-0.4-3.1,2.2-3.6,2.2-3.6
			v-0.8H159v0.8c0,0,2.2,0.6,2.9,5.3l6.1,36.6c0.3,1.7,0.3,2.1,0.3,2.7c0,2.8-2.5,2.8-2.5,2.8v0.8h12.4V80c0,0-2.7-0.2-2.3-2.9
			c0-0.3,0.3-2.2,0.3-2.2l6.1-34.8c0.7-5.6,1.2-7.4,3-7.6c1.6,0.1,2.7,0.8,2.7,6.3v36c0,5-3.2,5.2-3.2,5.2v0.8h31
			c1.7,0,1.9,0.1,2.3,1.3l2.7-18.7L220.5,63.3"/>
		<path fill="#FFFFFF" stroke="#000000" stroke-width="3" stroke-linejoin="round" stroke-miterlimit="10" d="M245.3,66.5l3.2-27.7
			c0.2-1.7,0.1-2.2,0.2-2.7c0.4-3-1.9-3.5-1.9-3.5v-0.8h7.9v0.8c0,0-1.9-0.1-2.8,6.6L247.8,74c-0.1,1.4-0.3,2.5-0.3,3
			c0,3.1,1.1,2.9,1.8,3.1v0.8H238v-0.8c0,0,1.6,0,1.6-2.7c0-0.4,0-1.1-0.1-1.7l-2.7-33.6l-3.3,32.5l-0.1,2.1
			c-0.1,0.4-0.1,0.7-0.1,0.9c0,2.5,1.6,2.5,1.6,2.5V81h-10.5v-0.8c0,0,1.7,0,1.7-2.8c0-0.4-0.1-0.6-0.1-1.6l-3.8-37.5
			c-0.6-5.3-2.6-5.4-2.6-5.4v-0.8h12v0.8l-0.4,0.1c-0.9,0.2-1.4,2.5-1.4,4.1c0,0.4,0,0.9,0.1,2.4l1.9,26.7l2.6-28.8
			c0.1-0.3,0-0.6,0.1-0.9c0.2-3.2-1.9-3.5-1.9-3.5v-0.8h11.8v0.8c0,0-1.9,0-1.8,3.2c0,0.1,0,0.4,0,0.9l0.1,1.3L245.3,66.5z"/>
		<path fill="#FFFFFF" stroke="#000000" stroke-width="3" stroke-linejoin="round" stroke-miterlimit="10" d="M256.2,75.8
			c-0.1-0.1-0.4-0.1-0.7-0.1h-0.3v1.3h0.5c0.3,0,0.5-0.1,0.6-0.1c0.1-0.1,0.2-0.3,0.2-0.6C256.5,76.1,256.4,75.9,256.2,75.8z
			 M254,79.5V75c0.3,0,0.7,0,1.3,0s0.9,0,0.9,0c0.4,0,0.6,0.1,0.9,0.2c0.4,0.2,0.6,0.6,0.6,1.1c0,0.4-0.1,0.6-0.4,0.9
			c-0.2,0.1-0.5,0.3-0.8,0.3c0.3,0.1,0.5,0.1,0.6,0.3c0.3,0.2,0.4,0.6,0.4,1v0.4c0,0.1,0,0.1,0,0.1c0,0.1,0,0.1,0,0.1l0.1,0.1h-1.2
			c0-0.1-0.1-0.4-0.1-0.6c0-0.3-0.1-0.4-0.1-0.6c-0.1-0.1-0.1-0.3-0.4-0.4c-0.1,0-0.2-0.1-0.4-0.1h-0.3h-0.3v1.6L254,79.5
			 M253.4,74.8c-0.6,0.6-1,1.4-1,2.4c0,0.9,0.4,1.7,1,2.5c0.6,0.6,1.4,1,2.4,1s1.7-0.4,2.4-1c0.6-0.6,1-1.4,1-2.5
			c0-0.9-0.3-1.7-1-2.4c-0.6-0.6-1.4-1-2.4-1S254.1,74.2,253.4,74.8 M258.7,80.2c-0.8,0.8-1.7,1.2-2.9,1.2s-2.2-0.4-3-1.2
			c-0.8-0.8-1.2-1.8-1.2-3c0-1.2,0.4-2.2,1.3-3c0.8-0.7,1.7-1.2,2.8-1.2c1.2,0,2.1,0.4,2.9,1.2c0.8,0.8,1.2,1.8,1.2,2.9
			C259.9,78.4,259.5,79.4,258.7,80.2"/>
	</g>
	<g>
		<g>
			<g>
				<path fill="#FFFFFF" stroke="#000000" stroke-width="3" stroke-linejoin="round" stroke-miterlimit="10" d="M157.5,97.4
					c0.2,0.1,0.4,0.1,0.6,0.1c2.7,0,3.2-2.2,3.2-3s-0.4-1.5-0.8-1.9c-0.6-0.6-1.4-0.7-2.2-0.7c-0.3,0-0.5,0-0.6,0.1
					c-0.1,0.1-0.2,0.3-0.2,0.5L157.5,97.4z M157.4,99c0,1,0,3,0.1,3.2c0.1,0.4,0.1,0.6,0.4,0.6h0.9c0.1,0,0.1,0.1,0.1,0.1v0.4
					c0,0.1-0.1,0.1-0.2,0.1c-0.2,0-0.6-0.1-2.4-0.1c-1.7,0-2.1,0.1-2.2,0.1c-0.1,0-0.1-0.1-0.1-0.1V103c0-0.1,0-0.1,0.1-0.1h0.6
					c0.4,0,0.6-0.1,0.6-0.6c0-1.7,0-3.3,0-5v-4.5c0-0.6-0.2-0.9-0.6-0.9H154c-0.1,0-0.1,0-0.1-0.1v-0.4c0-0.1,0.1-0.1,0.1-0.1
					c0.1,0,0.6,0.1,2.4,0.1c0.9,0,2.5-0.1,3-0.1c1.4,0,2.5,0.4,3.2,1.1c0.6,0.6,0.9,1.3,0.9,1.9c0,2.2-1.3,3-3.2,3.4v0.1
					c0.5,0.1,0.8,0.5,1,0.8c0.2,0.3,1.3,1.9,1.4,2.1c0.1,0.1,1.2,1.7,1.4,1.9c0.4,0.3,0.8,0.4,1.2,0.4c0.1,0,0.1,0.1,0.1,0.1v0.4
					c0,0.1-0.1,0.1-0.1,0.1c-0.1,0-0.6-0.1-1.7-0.1c-0.5,0-1.2,0-1.5,0.1c-0.2-0.1-0.5-0.6-0.8-1c-0.3-0.5-0.9-1.7-1.2-2
					c-0.1-0.3-0.6-1.1-0.9-1.4c-0.4-0.6-0.9-1.1-1.6-1.1c-0.1,0-0.4,0-0.5,0L157.4,99"/>
			</g>
			<g>
				<path fill="#FFFFFF" stroke="#000000" stroke-width="3" stroke-linejoin="round" stroke-miterlimit="10" d="M175,98.5
					c0,0.9,0.1,2.6,0.1,3c0,0.9,0.3,1.2,0.7,1.4c0.3,0.1,0.7,0.1,1.4,0.1c0.3,0,1.1,0,1.4-0.1c0.3,0,0.9-0.2,1.4-0.6
					c0.3-0.3,1.3-1.4,1.6-1.8c0.1-0.1,0.1-0.1,0.2-0.1l0.3,0.1c0.1,0,0.1,0.1,0,0.1l-0.8,2.6c-0.1,0.1-0.1,0.3-0.4,0.3
					c-0.1,0-1.5-0.1-7.2-0.1c-1.3,0-1.9,0.1-2.2,0.1c-0.1,0-0.1,0-0.1-0.1V103c0-0.1,0.1-0.1,0.2-0.1h0.6c0.8,0,0.9-0.1,0.9-0.7V98
					v-1.7c0-1.4-0.1-3.5-0.1-3.8c-0.1-0.4-0.2-0.6-0.7-0.6h-0.6c-0.1,0-0.1,0-0.1-0.1v-0.4c0-0.1,0-0.1,0.1-0.1c0.4,0,1,0.1,2.4,0.1
					h0.5c0.8,0,4.7,0,5.5,0c0.3,0,0.6,0,0.7,0c0.1,0,0.1,0,0.1,0.1c0.1,0.2,0.7,2.5,0.8,2.7c0,0.1,0,0.1-0.1,0.1l-0.3,0.1
					c-0.1,0-0.1,0-0.1-0.1c-0.1-0.1-1.4-1.7-1.9-1.9c-0.4-0.2-0.8-0.4-1.3-0.4l-2.6-0.1v5c0.5,0,1.7,0,1.9-0.1
					c0.4-0.1,0.6-0.2,0.8-0.6c0.1-0.2,0.3-0.6,0.3-0.9c0-0.1,0.1-0.1,0.1-0.1l0.4,0.1c0.1,0,0.1,0.1,0.1,0.1
					c-0.1,0.3-0.1,1.4-0.1,1.9c0,0.6,0.1,1.5,0.1,1.9c0,0.1,0,0.1-0.1,0.1l-0.4,0.1c-0.1,0-0.1,0-0.1-0.1c-0.1-0.3-0.2-0.6-0.3-0.9
					c-0.1-0.4-0.4-0.6-0.9-0.6c-0.6-0.1-1.4-0.1-2-0.1L175,98.5z"/>
			</g>
			<g>
				<path fill="#FFFFFF" stroke="#000000" stroke-width="3" stroke-linejoin="round" stroke-miterlimit="10" d="M189.2,99.6
					c0.1,0,0.1,0.1,0.1,0.1c0,0.6,0.1,1.2,0.6,1.9c0.5,0.8,1.4,1.2,2.2,1.2c0.9,0,2.2-0.6,2.2-2c0-1.6-0.7-2.1-2.5-2.8
					c-0.5-0.2-1.7-0.7-2.5-1.4c-0.6-0.5-0.9-1.4-0.9-2.5c0-0.9,0.4-1.7,1.2-2.4c0.7-0.6,1.4-0.8,2.5-0.8c1.2,0,1.8,0.3,2.2,0.4
					c0.1,0.1,0.3,0,0.4-0.1l0.2-0.2c0.1-0.1,0.1-0.1,0.2-0.1c0.1,0,0.1,0.1,0.1,0.3c0,0.3,0.3,2.7,0.3,2.9c0,0.1-0.1,0.1-0.1,0.1
					l-0.3,0.1c-0.1,0-0.1,0-0.1-0.1c-0.2-0.5-0.4-1.2-1.1-1.8c-0.4-0.4-1-0.7-1.8-0.7c-1.4,0-1.9,1.1-1.9,1.7c0,0.6,0.1,1.1,0.5,1.5
					c0.4,0.4,1.4,0.9,2.1,1.1c1,0.3,1.8,0.6,2.5,1.4c0.6,0.6,0.9,1.3,0.9,2.5c0,2.1-1.4,3.8-3.7,3.8c-1.4,0-2.2-0.3-2.9-0.9
					c-0.2-0.1-0.3-0.2-0.4-0.2c-0.1,0-0.1,0.1-0.3,0.3c-0.1,0.1-0.1,0.2-0.3,0.2s-0.2-0.1-0.2-0.3c0.1-0.2,0.3-3,0.3-3.2
					c0-0.1,0-0.1,0.1-0.1L189.2,99.6z"/>
			</g>
			<g>
				<path fill="#FFFFFF" stroke="#000000" stroke-width="3" stroke-linejoin="round" stroke-miterlimit="10" d="M206.9,92.8
					c-1,1-1.5,2.8-1.5,4.2c0,4.5,2.7,6.1,4.2,6.1c3.5,0,4-3.9,4-5.3c0-3.8-2.5-5.9-4.2-5.9C209.1,91.8,208.1,91.6,206.9,92.8z
					 M213.5,92.4c1.3,1.1,2.4,2.7,2.4,5.1c0,1.3-0.4,2.6-1.3,3.7c-1.1,1.4-2.6,2.5-5.2,2.5c-1,0-2.5-0.3-3.9-1.2
					c-1.2-0.7-2.5-2.6-2.5-5c0-1,0.3-2.7,1.6-4.3c1.5-1.9,3.4-2.2,4.8-2.2C210.7,91.1,212.2,91.3,213.5,92.4"/>
			</g>
			<g>
				<path fill="#FFFFFF" stroke="#000000" stroke-width="3" stroke-linejoin="round" stroke-miterlimit="10" d="M226.3,97.4
					c0.2,0.1,0.4,0.1,0.6,0.1c2.7,0,3.2-2.2,3.2-3s-0.4-1.5-0.8-1.9c-0.6-0.6-1.4-0.7-2.2-0.7c-0.3,0-0.5,0-0.6,0.1
					c-0.1,0.1-0.2,0.3-0.2,0.5V97.4z M226.3,99c0,1,0,3,0.1,3.2c0.1,0.4,0.1,0.6,0.4,0.6h0.9c0.1,0,0.1,0.1,0.1,0.1v0.4
					c0,0.1-0.1,0.1-0.2,0.1c-0.2,0-0.6-0.1-2.4-0.1c-1.7,0-2.1,0.1-2.3,0.1c-0.1,0-0.1-0.1-0.1-0.1V103c0-0.1,0.1-0.1,0.1-0.1h0.6
					c0.4,0,0.6-0.1,0.6-0.6c0-1.7,0-3.3,0-5v-4.5c0-0.6-0.2-0.9-0.6-0.9h-0.6c-0.1,0-0.1,0-0.1-0.1v-0.4c0-0.1,0-0.1,0.1-0.1
					c0.1,0,0.6,0.1,2.4,0.1c0.9,0,2.5-0.1,3-0.1c1.4,0,2.5,0.4,3.1,1.1c0.6,0.6,0.9,1.3,0.9,1.9c0,2.2-1.3,3-3.2,3.4v0.1
					c0.5,0.1,0.8,0.5,1,0.8c0.2,0.3,1.3,1.9,1.4,2.1c0.1,0.1,1.2,1.7,1.4,1.9c0.4,0.3,0.8,0.4,1.2,0.4c0.1,0,0.1,0.1,0.1,0.1v0.4
					c0,0.1,0,0.1-0.1,0.1c-0.1,0-0.6-0.1-1.7-0.1c-0.5,0-1.2,0-1.5,0.1c-0.2-0.1-0.6-0.6-0.8-1c-0.3-0.5-1-1.7-1.2-2
					c-0.1-0.3-0.6-1.1-0.9-1.4c-0.4-0.6-0.8-1.1-1.5-1.1c-0.1,0-0.4,0-0.6,0L226.3,99"/>
			</g>
			<g>
				<path fill="#FFFFFF" stroke="#000000" stroke-width="3" stroke-linejoin="round" stroke-miterlimit="10" d="M244.3,92h-0.5
					c-0.6,0-1.8,0-2.5,0.2c-0.6,0.2-1.2,1.4-1.5,1.9c-0.1,0.1-0.1,0.1-0.2,0.1l-0.4-0.1c-0.1,0-0.1-0.1-0.1-0.1
					c0.1-0.6,0.7-2.9,0.8-3.2c0-0.2,0.1-0.3,0.2-0.3c0.1,0,0.1,0.1,0.3,0.1c0.4,0.4,0.7,0.4,1.2,0.4c0.9,0,1.7,0.1,3.3,0.1h0.9
					c1.9,0,2.6-0.1,3.4-0.1c0.3,0,1-0.3,1.2-0.4c0.1-0.1,0.2-0.1,0.3-0.1c0.1,0,0.1,0.1,0.2,0.3c0,0.3,0.4,2.5,0.5,3.2
					c0,0.1,0,0.1-0.1,0.1l-0.4,0.1c-0.1,0-0.1-0.1-0.1-0.1c-0.2-0.5-0.9-1.6-1.4-1.9c-0.5-0.3-2-0.3-2.7-0.3h-0.5v9.2
					c0,1.3,0.1,1.7,0.6,1.7h1c0.1,0,0.1,0.1,0.1,0.1v0.4c0,0.1-0.1,0.1-0.2,0.1c-0.1,0-0.7-0.1-2.6-0.1c-1.8,0-2.5,0.1-2.7,0.1
					c-0.1,0-0.1,0-0.1-0.1v-0.4c0-0.1,0.1-0.1,0.1-0.1h1c0.4,0,0.6-0.2,0.6-0.4c0.1-0.4,0.1-5.7,0.1-6.1L244.3,92L244.3,92z"/>
			</g>
		</g>
		<g>
			<g>
				<path fill="#FFFFFF" stroke="#000000" stroke-width="3" stroke-linejoin="round" stroke-miterlimit="10" d="M57.5,100.5
					c0.1,0.1,0.1,0.1,0.1,0.1c-1,1.5-2.7,2.9-5.1,2.9c-2.2,0-3.5-0.6-4.5-1.6c-1.3-1.2-1.9-3.1-1.9-4.7c0-1.7,0.6-3.3,1.7-4.6
					c0.9-1,2.4-1.8,4.5-1.8c1.6,0,2.8,0.5,3.5,0.9c0.2,0.1,0.3,0.1,0.4,0l0.2-0.4c0-0.1,0.1-0.1,0.3-0.1s0.2,0,0.2,0.3
					c0,0.3,0.4,3,0.4,3.6c0,0.1,0,0.1-0.1,0.1l-0.4,0.1c-0.1,0-0.1,0-0.2-0.1c-0.2-0.6-0.6-1.5-1.4-2.2c-0.7-0.7-1.7-1.3-3-1.3
					c-2.7,0-3.9,2.5-3.9,5c0,1.1,0.3,3.1,1.6,4.5c1.2,1.2,2.2,1.4,3,1.4c1.9,0,3.4-0.9,4.1-2c0.1-0.1,0.1-0.1,0.2-0.1L57.5,100.5z"
					/>
			</g>
			<g>
				<path fill="#FFFFFF" stroke="#000000" stroke-width="3" stroke-linejoin="round" stroke-miterlimit="10" d="M69.3,97.9
					c-0.1-0.5-1.3-4.4-1.4-4.8c-0.1-0.2-0.1-0.3-0.1-0.3c-0.1,0-0.1,0.1-0.2,0.2c-0.1,0.2-1.6,4.5-1.7,4.8H69.3z M65.5,98.6
					c-0.1,0.4-1,2.9-1.1,3.3c0,0.1,0,0.3,0,0.4c0,0.2,0.3,0.4,0.6,0.4h0.7c0.1,0,0.1,0,0.1,0.1v0.4c0,0.1,0,0.1-0.1,0.1
					c-0.2,0-0.9-0.1-2.2-0.1c-1.3,0-1.7,0.1-1.9,0.1c-0.1,0-0.1-0.1-0.1-0.2v-0.3c0-0.1,0-0.1,0.1-0.1h0.5c0.5,0,0.8-0.2,1.1-0.8
					c0.1-0.3,1.4-3.4,1.9-4.8c0.1-0.4,1.5-4,1.7-4.5c0.1-0.1,0.1-0.5,0.1-0.6s-0.1-0.1-0.1-0.2s0.1-0.1,0.1-0.1
					c0.6-0.1,1.5-0.6,1.7-0.9c0.1-0.1,0.1-0.1,0.3-0.1c0.1,0,0.1,0.2,0.2,0.3c0.3,1.1,1.7,4.9,1.9,6.1c0.4,1.4,1.5,4.5,1.7,5
					c0.3,0.6,0.8,0.8,1.1,0.8h0.6c0.1,0,0.1,0,0.1,0.1v0.4c0,0.1-0.1,0.2-0.1,0.2c-0.3,0-0.6-0.1-2.5-0.1c-1.4,0-2,0.1-2.4,0.1
					c-0.1,0-0.1-0.1-0.1-0.2v-0.4c0-0.1,0-0.1,0.1-0.1H70c0.5,0,0.6-0.1,0.5-0.6c-0.1-0.6-0.8-2.8-1-3.5H65.5"/>
			</g>
			<g>
				<path fill="#FFFFFF" stroke="#000000" stroke-width="3" stroke-linejoin="round" stroke-miterlimit="10" d="M80.7,99.5
					c0.1,0,0.1,0,0.1,0.1c0.1,0.6,0.1,1.2,0.6,1.9c0.5,0.9,1.4,1.2,2.2,1.2c0.9,0,2.2-0.6,2.2-2c0-1.6-0.7-2.1-2.5-2.8
					c-0.6-0.2-1.7-0.7-2.5-1.4C80.3,96,80,95.1,80,94.1c0-0.9,0.4-1.7,1.2-2.4c0.7-0.6,1.4-0.9,2.5-0.9c1.2,0,1.8,0.3,2.2,0.4
					c0.1,0.1,0.3,0,0.4-0.1l0.2-0.2c0.1-0.1,0.1-0.1,0.2-0.1c0.1,0,0.1,0.1,0.1,0.3c0,0.3,0.3,2.7,0.3,2.9c0,0.1,0,0.1-0.1,0.1
					l-0.3,0.1c-0.1,0-0.1,0-0.1-0.1c-0.1-0.5-0.4-1.2-1.1-1.8c-0.4-0.5-1-0.7-1.8-0.7c-1.4,0-1.9,1.1-1.9,1.7c0,0.6,0.1,1.1,0.5,1.5
					c0.4,0.4,1.4,0.9,2.1,1.1c1,0.3,1.8,0.6,2.5,1.4c0.6,0.6,0.9,1.3,0.9,2.5c0,2.1-1.4,3.8-3.7,3.8c-1.4,0-2.2-0.3-2.9-0.8
					c-0.2-0.1-0.3-0.2-0.4-0.2c-0.1,0-0.1,0.1-0.3,0.3c-0.1,0.1-0.1,0.2-0.3,0.2c-0.1,0-0.2-0.1-0.2-0.3c0-0.2,0.3-3,0.3-3.2
					c0-0.1,0.1-0.1,0.1-0.1L80.7,99.5z"/>
			</g>
			<g>
				<path fill="#FFFFFF" stroke="#000000" stroke-width="3" stroke-linejoin="round" stroke-miterlimit="10" d="M99.4,97.8
					c0,0.1,0,4.1,0,4.3c0,0.6,0.3,0.6,0.7,0.6h0.7c0.1,0,0.1,0,0.1,0.1v0.4c0,0.1-0.1,0.1-0.1,0.1c-0.2,0-0.9-0.1-2.5-0.1
					c-1.7,0-2.5,0.1-2.7,0.1c-0.1,0-0.1,0-0.1-0.1v-0.5c0-0.1,0-0.1,0.1-0.1h0.6c0.4,0,0.7,0,0.8-0.5c0.1-0.2,0.1-4,0.1-4.9v-1.2
					c0-0.4,0-3.5-0.1-3.8c-0.1-0.4-0.2-0.6-0.7-0.6h-0.9c-0.1,0-0.1,0-0.1-0.1v-0.4c0-0.1,0-0.1,0.1-0.1c0.2,0,1.1,0.1,2.7,0.1
					c1.7,0,2.2-0.1,2.5-0.1c0.1,0,0.1,0.1,0.1,0.1v0.4c0,0.1-0.1,0.1-0.1,0.1H100c-0.4,0-0.6,0.1-0.6,0.4c0,0.1,0,4,0,4.2V97.8
					L99.4,97.8z"/>
			</g>
			<g>
				<path fill="#FFFFFF" stroke="#000000" stroke-width="3" stroke-linejoin="round" stroke-miterlimit="10" d="M111.1,95.5
					c0,3,0.1,5.3,0.1,5.8c0.1,0.9,0.2,1.3,0.9,1.3h0.4c0.1,0,0.1,0.1,0.1,0.1v0.4c0,0.1,0,0.1-0.1,0.1c-0.1,0-1.2-0.1-1.9-0.1
					c-0.4,0-1.6,0.1-1.8,0.1c-0.1,0-0.1,0-0.1-0.1v-0.4c0,0,0-0.1,0.1-0.1h0.6c0.4,0,0.6-0.4,0.8-1.4c0-0.3,0.1-2.7,0.1-5.5v-2.2
					c0-1-0.6-1.8-1.4-1.8h-0.6c-0.1,0-0.1-0.1-0.1-0.1v-0.4c0-0.1,0-0.1,0.1-0.1c0.1,0,0.2,0,0.5,0c0.3,0,0.8,0,1.5,0
					c0.3,0,0.6,0,0.8-0.1c0.2,0,0.4,0,0.5,0c0.2,0,0.3,0.1,0.4,0.1c0.1,0.1,3.5,4.4,3.9,4.9c0.2,0.3,2.9,3.6,3.2,4h0.1v-1.8
					c0-1.5,0-2.4,0-3.2c-0.1-0.6-0.1-2.3-0.2-2.6c-0.1-0.4-0.5-0.6-0.9-0.6h-0.6c-0.1,0-0.1-0.1-0.1-0.1v-0.4c0-0.1,0-0.1,0.1-0.1
					c0.2,0,0.7,0.1,1.9,0.1c1,0,1.4-0.1,1.7-0.1c0.1,0,0.1,0.1,0.1,0.1v0.4c0,0.1,0,0.1-0.1,0.1h-0.5c-0.4,0-0.5,0.3-0.6,0.9
					c-0.1,1.2-0.3,4-0.3,5.8v4.5c0,0.2,0,0.5-0.2,0.5c-0.2,0-0.4-0.1-0.6-0.3c-0.1-0.1-1.1-1.2-2.2-2.5c-1.2-1.5-2.5-3.1-2.7-3.4
					c-0.2-0.2-3-3.7-3.2-3.9h0V95.5L111.1,95.5z"/>
			</g>
			<g>
				<path fill="#FFFFFF" stroke="#000000" stroke-width="3" stroke-linejoin="round" stroke-miterlimit="10" d="M131.1,92.6
					c-1.1,1-1.5,2.8-1.5,4.2c0,4.5,2.7,6.1,4.2,6.1c3.5,0,4-3.8,4-5.3c0-3.7-2.5-5.9-4.2-5.9C133.3,91.6,132.3,91.4,131.1,92.6z
					 M137.7,92.2c1.3,1.1,2.3,2.7,2.3,5.1c0,1.3-0.4,2.6-1.3,3.7c-1.1,1.4-2.6,2.5-5.1,2.5c-1,0-2.5-0.3-3.9-1.2
					c-1.2-0.7-2.5-2.6-2.5-5c0-1,0.3-2.7,1.6-4.3c1.5-1.9,3.4-2.2,4.8-2.2C134.9,90.8,136.3,91.1,137.7,92.2"/>
			</g>
		</g>
	</g>
</g>
<g>
	<g>
		<path fill="#FFFFFF" d="M58.8,36c3.8,0,6.7,4,8,11l0.6-0.4l-1.7-16.1c-0.7,1.1-1.2,1.3-2.2,1.3h-4.6H46h-1.1v0.8c0,0,0.4,0,1,0.3
			c0.9,0.4,1.9,1.4,2.1,4.2c0,0.2,0,0.5,0,0.8v36.9v0.1c0,3.1-1.2,4.3-2.2,4.8c-0.6,0.3-1,0.4-1,0.4v0.8h1H58h0.7v-0.8
			c0,0-0.4-0.1-0.7-0.3c-0.9-0.4-2.1-1.7-2.1-4.9V50h1.8c2.2,0,3.7,2.7,4.4,7.8l0.6-0.2l-1.2-17.5l-0.6,0.1c0,4-0.9,5.5-3.2,5.5
			h-1.7v-5.6C56,37,56.8,36,58.8,36z"/>
		<path fill="#FFFFFF" d="M90.8,80c-3.5,0-3-5.3-3-7.3V38.3c0-2.9,0.4-5.6,3-5.6c2.4,0,3.2,2.7,3.2,5.6v34.5
			C94,74.5,94.3,80,90.8,80z M80.3,55.1c-3.4,0.9-7.7,5-7.7,5c1.7-12.4,7.7-21.7,7.7-21.7S80.3,46.4,80.3,55.1 M112.9,61.1
			c-0.9,4.6-1.7,7.3-3.5,10.5c-1.7,3.2-3.5,4.8-5.2,4.8c-1.4,0-2.2-1.2-2.4-3.8V37.9c0-3.8,1.2-4.5,2.2-5c0.1-0.1,0.2-0.1,0.3-0.1
			l0.4-0.1v-0.8h-0.6H77.2c-3.2,3.4-12,23.5-12,44.1c0,1.9-0.9,4.2-2.7,4.2v0.8h9.7v-0.8c-1.4-0.8-2.2-2.6-2.2-5.6
			c0-1.7,0.5-3.3,0.6-3.4c0.4-1.4,0.9-2.6,1.4-3.7c2.5-5.4,6-7.2,8.2-7.8c0,7.5,0,14.4,0,15.4c0,5-2.8,5-2.8,5v0.8h27.2h3.7
			c1.2,0,1.7,0.3,2.2,1.1l3-20.6L112.9,61.1"/>
		<path fill="#FFFFFF" d="M134.9,61.1c-0.9,4.6-1.7,7.3-3.5,10.5c-1.7,3.2-3.4,4.8-5.2,4.8c-1.4,0-2.2-1.2-2.4-3.8V37.9
			c0-3.8,1.2-4.5,2.2-5c0.1-0.1,0.2-0.1,0.3-0.1l0.4-0.1v-0.8h-0.6h-12.3h-0.9v0.8c0,0,0.4,0,0.9,0.2c0.9,0.4,2.2,1.6,2.2,5l0,0l0,0
			v37l0,0l0,0c0,0.3,0,0.5,0,0.8c0,0.2-0.1,0.4-0.1,0.6c-0.3,2.1-1.3,3-2,3.5c-0.6,0.3-1,0.4-1,0.4v0.8h1h12.8h3.7
			c1.2,0,1.7,0.3,2.2,1.1l3-20.6L134.9,61.1z"/>
		<path fill="#FFFFFF" d="M156.4,31.2l0.3,16.9l-0.6,0.1c-0.9-7.6-3.8-12.3-7.4-12.3c-2.3,0-4.1,2.4-4.1,5.4c0,2.5,0.8,3.8,3,5.2
			c0.4,0.3,1.4,1,3.1,2.2c1.2,0.9,2.2,1.6,3,2.2c1.2,0.8,2.1,1.8,2.8,2.9c1.7,2.5,2.7,6.5,2.7,10.7c0,9.9-5.2,17.2-12.3,17.2
			c-1.5,0-3.2-0.4-5.2-1.2c-1.8-0.6-1.9-0.7-2.2-0.7c-0.6,0-1.1,0.4-1.8,1.5l-0.9-20l0.6-0.1c0.7,4.9,1.5,7.7,3,10.5
			c1.8,3.4,3.9,5.1,6.3,5.1c3.2,0,5.6-3.5,5.6-8.1c0-3.8-1.2-5.3-5.6-8.1c-5.1-3.2-6.2-4.1-7.4-6.6c-1.2-2.2-1.8-5-1.8-8.1
			c0-8.6,4.4-14.7,10.6-14.7c1.2,0,2.2,0.2,4.3,0.9c1.3,0.4,1.7,0.4,2.2,0.4c0.6,0,1-0.2,1.4-0.9C156.3,31.5,156.3,31.3,156.4,31.2z
			"/>
		<path fill="#FFFFFF" d="M201.6,74.5c0,4.3-1.4,5.6-3,5.6c-1.6,0-3-1.1-3-5.5V37.8c0-5.3,2.7-5.3,3-5.2l0,0l0,0l0,0l0,0
			c0.3,0,3,0.1,3,5.2V74.5z M220.5,63.3c-1.9,8.6-5.2,13.3-9,13.3c-2,0-2.7-1.3-2.7-5.2V49.9h1.7c2.2,0,3.7,2.7,4.3,7.6l0.6-0.1
			l-1.1-17.2l-0.5,0.1l-0.1,0.8c-0.4,3.5-1.2,4.6-3.2,4.6h-1.7v-5.6c0-3.1,0.6-4.2,2.6-4.2c3.5,0,6.3,4.3,7.2,11.1l0.5-0.2
			l-1.4-16.4c-0.4,1.2-0.8,1.4-2.1,1.4h-38.8v0.8c0,0,2.2,0.7,1.9,3.7c0,0.4-0.1,1.2-0.2,2.2L174,67.3l-3.9-28.3
			c-0.1-1.2-0.1-2.1-0.2-2.7c-0.4-3.1,2.2-3.6,2.2-3.6v-0.8H159v0.8c0,0,2.2,0.6,2.9,5.3l6.1,36.6c0.3,1.7,0.3,2.1,0.3,2.7
			c0,2.8-2.5,2.8-2.5,2.8v0.8h12.4V80c0,0-2.7-0.2-2.3-2.9c0-0.3,0.3-2.2,0.3-2.2l6.1-34.8c0.7-5.6,1.2-7.4,3-7.6
			c1.6,0.1,2.7,0.8,2.7,6.3v36c0,5-3.2,5.2-3.2,5.2v0.8h31c1.7,0,1.9,0.1,2.3,1.3l2.7-18.7L220.5,63.3"/>
		<path fill="#FFFFFF" d="M245.3,66.5l3.2-27.7c0.2-1.7,0.1-2.2,0.2-2.7c0.4-3-1.9-3.5-1.9-3.5v-0.8h7.9v0.8c0,0-1.9-0.1-2.8,6.6
			L247.8,74c-0.1,1.4-0.3,2.5-0.3,3c0,3.1,1.1,2.9,1.8,3.1v0.8H238v-0.8c0,0,1.6,0,1.6-2.7c0-0.4,0-1.1-0.1-1.7l-2.7-33.6l-3.3,32.5
			l-0.1,2.1c-0.1,0.4-0.1,0.7-0.1,0.9c0,2.5,1.6,2.5,1.6,2.5V81h-10.5v-0.8c0,0,1.7,0,1.7-2.8c0-0.4-0.1-0.6-0.1-1.6l-3.8-37.5
			c-0.6-5.3-2.6-5.4-2.6-5.4v-0.8h12v0.8l-0.4,0.1c-0.9,0.2-1.4,2.5-1.4,4.1c0,0.4,0,0.9,0.1,2.4l1.9,26.7l2.6-28.8
			c0.1-0.3,0-0.6,0.1-0.9c0.2-3.2-1.9-3.5-1.9-3.5v-0.8h11.8v0.8c0,0-1.9,0-1.8,3.2c0,0.1,0,0.4,0,0.9l0.1,1.3L245.3,66.5z"/>
		<path fill="#FFFFFF" d="M256.2,75.8c-0.1-0.1-0.4-0.1-0.7-0.1h-0.3v1.3h0.5c0.3,0,0.5-0.1,0.6-0.1c0.1-0.1,0.2-0.3,0.2-0.6
			C256.5,76.1,256.4,75.9,256.2,75.8z M254,79.5V75c0.3,0,0.7,0,1.3,0s0.9,0,0.9,0c0.4,0,0.6,0.1,0.9,0.2c0.4,0.2,0.6,0.6,0.6,1.1
			c0,0.4-0.1,0.6-0.4,0.9c-0.2,0.1-0.5,0.3-0.8,0.3c0.3,0.1,0.5,0.1,0.6,0.3c0.3,0.2,0.4,0.6,0.4,1v0.4c0,0.1,0,0.1,0,0.1
			c0,0.1,0,0.1,0,0.1l0.1,0.1h-1.2c0-0.1-0.1-0.4-0.1-0.6c0-0.3-0.1-0.4-0.1-0.6c-0.1-0.1-0.1-0.3-0.4-0.4c-0.1,0-0.2-0.1-0.4-0.1
			h-0.3h-0.3v1.6L254,79.5 M253.4,74.8c-0.6,0.6-1,1.4-1,2.4c0,0.9,0.4,1.7,1,2.5c0.6,0.6,1.4,1,2.4,1s1.7-0.4,2.4-1
			c0.6-0.6,1-1.4,1-2.5c0-0.9-0.3-1.7-1-2.4c-0.6-0.6-1.4-1-2.4-1S254.1,74.2,253.4,74.8 M258.7,80.2c-0.8,0.8-1.7,1.2-2.9,1.2
			s-2.2-0.4-3-1.2c-0.8-0.8-1.2-1.8-1.2-3c0-1.2,0.4-2.2,1.3-3c0.8-0.7,1.7-1.2,2.8-1.2c1.2,0,2.1,0.4,2.9,1.2
			c0.8,0.8,1.2,1.8,1.2,2.9C259.9,78.4,259.5,79.4,258.7,80.2"/>
	</g>
	<g>
		<g>
			<g>
				<path fill="#FFFFFF" d="M157.5,97.4c0.2,0.1,0.4,0.1,0.6,0.1c2.7,0,3.2-2.2,3.2-3s-0.4-1.5-0.8-1.9c-0.6-0.6-1.4-0.7-2.2-0.7
					c-0.3,0-0.5,0-0.6,0.1c-0.1,0.1-0.2,0.3-0.2,0.5L157.5,97.4z M157.4,99c0,1,0,3,0.1,3.2c0.1,0.4,0.1,0.6,0.4,0.6h0.9
					c0.1,0,0.1,0.1,0.1,0.1v0.4c0,0.1-0.1,0.1-0.2,0.1c-0.2,0-0.6-0.1-2.4-0.1c-1.7,0-2.1,0.1-2.2,0.1c-0.1,0-0.1-0.1-0.1-0.1V103
					c0-0.1,0-0.1,0.1-0.1h0.6c0.4,0,0.6-0.1,0.6-0.6c0-1.7,0-3.3,0-5v-4.5c0-0.6-0.2-0.9-0.6-0.9H154c-0.1,0-0.1,0-0.1-0.1v-0.4
					c0-0.1,0.1-0.1,0.1-0.1c0.1,0,0.6,0.1,2.4,0.1c0.9,0,2.5-0.1,3-0.1c1.4,0,2.5,0.4,3.2,1.1c0.6,0.6,0.9,1.3,0.9,1.9
					c0,2.2-1.3,3-3.2,3.4v0.1c0.5,0.1,0.8,0.5,1,0.8c0.2,0.3,1.3,1.9,1.4,2.1c0.1,0.1,1.2,1.7,1.4,1.9c0.4,0.3,0.8,0.4,1.2,0.4
					c0.1,0,0.1,0.1,0.1,0.1v0.4c0,0.1-0.1,0.1-0.1,0.1c-0.1,0-0.6-0.1-1.7-0.1c-0.5,0-1.2,0-1.5,0.1c-0.2-0.1-0.5-0.6-0.8-1
					c-0.3-0.5-0.9-1.7-1.2-2c-0.1-0.3-0.6-1.1-0.9-1.4c-0.4-0.6-0.9-1.1-1.6-1.1c-0.1,0-0.4,0-0.5,0L157.4,99"/>
			</g>
			<g>
				<path fill="#FFFFFF" d="M175,98.5c0,0.9,0.1,2.6,0.1,3c0,0.9,0.3,1.2,0.7,1.4c0.3,0.1,0.7,0.1,1.4,0.1c0.3,0,1.1,0,1.4-0.1
					c0.3,0,0.9-0.2,1.4-0.6c0.3-0.3,1.3-1.4,1.6-1.8c0.1-0.1,0.1-0.1,0.2-0.1l0.3,0.1c0.1,0,0.1,0.1,0,0.1l-0.8,2.6
					c-0.1,0.1-0.1,0.3-0.4,0.3c-0.1,0-1.5-0.1-7.2-0.1c-1.3,0-1.9,0.1-2.2,0.1c-0.1,0-0.1,0-0.1-0.1V103c0-0.1,0.1-0.1,0.2-0.1h0.6
					c0.8,0,0.9-0.1,0.9-0.7V98v-1.7c0-1.4-0.1-3.5-0.1-3.8c-0.1-0.4-0.2-0.6-0.7-0.6h-0.6c-0.1,0-0.1,0-0.1-0.1v-0.4
					c0-0.1,0-0.1,0.1-0.1c0.4,0,1,0.1,2.4,0.1h0.5c0.8,0,4.7,0,5.5,0c0.3,0,0.6,0,0.7,0c0.1,0,0.1,0,0.1,0.1
					c0.1,0.2,0.7,2.5,0.8,2.7c0,0.1,0,0.1-0.1,0.1l-0.3,0.1c-0.1,0-0.1,0-0.1-0.1c-0.1-0.1-1.4-1.7-1.9-1.9
					c-0.4-0.2-0.8-0.4-1.3-0.4l-2.6-0.1v5c0.5,0,1.7,0,1.9-0.1c0.4-0.1,0.6-0.2,0.8-0.6c0.1-0.2,0.3-0.6,0.3-0.9
					c0-0.1,0.1-0.1,0.1-0.1l0.4,0.1c0.1,0,0.1,0.1,0.1,0.1c-0.1,0.3-0.1,1.4-0.1,1.9c0,0.6,0.1,1.5,0.1,1.9c0,0.1,0,0.1-0.1,0.1
					l-0.4,0.1c-0.1,0-0.1,0-0.1-0.1c-0.1-0.3-0.2-0.6-0.3-0.9c-0.1-0.4-0.4-0.6-0.9-0.6c-0.6-0.1-1.4-0.1-2-0.1L175,98.5z"/>
			</g>
			<g>
				<path fill="#FFFFFF" d="M189.2,99.6c0.1,0,0.1,0.1,0.1,0.1c0,0.6,0.1,1.2,0.6,1.9c0.5,0.8,1.4,1.2,2.2,1.2c0.9,0,2.2-0.6,2.2-2
					c0-1.6-0.7-2.1-2.5-2.8c-0.5-0.2-1.7-0.7-2.5-1.4c-0.6-0.5-0.9-1.4-0.9-2.5c0-0.9,0.4-1.7,1.2-2.4c0.7-0.6,1.4-0.8,2.5-0.8
					c1.2,0,1.8,0.3,2.2,0.4c0.1,0.1,0.3,0,0.4-0.1l0.2-0.2c0.1-0.1,0.1-0.1,0.2-0.1c0.1,0,0.1,0.1,0.1,0.3c0,0.3,0.3,2.7,0.3,2.9
					c0,0.1-0.1,0.1-0.1,0.1l-0.3,0.1c-0.1,0-0.1,0-0.1-0.1c-0.2-0.5-0.4-1.2-1.1-1.8c-0.4-0.4-1-0.7-1.8-0.7c-1.4,0-1.9,1.1-1.9,1.7
					c0,0.6,0.1,1.1,0.5,1.5c0.4,0.4,1.4,0.9,2.1,1.1c1,0.3,1.8,0.6,2.5,1.4c0.6,0.6,0.9,1.3,0.9,2.5c0,2.1-1.4,3.8-3.7,3.8
					c-1.4,0-2.2-0.3-2.9-0.9c-0.2-0.1-0.3-0.2-0.4-0.2c-0.1,0-0.1,0.1-0.3,0.3c-0.1,0.1-0.1,0.2-0.3,0.2s-0.2-0.1-0.2-0.3
					c0.1-0.2,0.3-3,0.3-3.2c0-0.1,0-0.1,0.1-0.1L189.2,99.6z"/>
			</g>
			<g>
				<path fill="#FFFFFF" d="M206.9,92.8c-1,1-1.5,2.8-1.5,4.2c0,4.5,2.7,6.1,4.2,6.1c3.5,0,4-3.9,4-5.3c0-3.8-2.5-5.9-4.2-5.9
					C209.1,91.8,208.1,91.6,206.9,92.8z M213.5,92.4c1.3,1.1,2.4,2.7,2.4,5.1c0,1.3-0.4,2.6-1.3,3.7c-1.1,1.4-2.6,2.5-5.2,2.5
					c-1,0-2.5-0.3-3.9-1.2c-1.2-0.7-2.5-2.6-2.5-5c0-1,0.3-2.7,1.6-4.3c1.5-1.9,3.4-2.2,4.8-2.2C210.7,91.1,212.2,91.3,213.5,92.4"
					/>
			</g>
			<g>
				<path fill="#FFFFFF" d="M226.3,97.4c0.2,0.1,0.4,0.1,0.6,0.1c2.7,0,3.2-2.2,3.2-3s-0.4-1.5-0.8-1.9c-0.6-0.6-1.4-0.7-2.2-0.7
					c-0.3,0-0.5,0-0.6,0.1c-0.1,0.1-0.2,0.3-0.2,0.5V97.4z M226.3,99c0,1,0,3,0.1,3.2c0.1,0.4,0.1,0.6,0.4,0.6h0.9
					c0.1,0,0.1,0.1,0.1,0.1v0.4c0,0.1-0.1,0.1-0.2,0.1c-0.2,0-0.6-0.1-2.4-0.1c-1.7,0-2.1,0.1-2.3,0.1c-0.1,0-0.1-0.1-0.1-0.1V103
					c0-0.1,0.1-0.1,0.1-0.1h0.6c0.4,0,0.6-0.1,0.6-0.6c0-1.7,0-3.3,0-5v-4.5c0-0.6-0.2-0.9-0.6-0.9h-0.6c-0.1,0-0.1,0-0.1-0.1v-0.4
					c0-0.1,0-0.1,0.1-0.1c0.1,0,0.6,0.1,2.4,0.1c0.9,0,2.5-0.1,3-0.1c1.4,0,2.5,0.4,3.1,1.1c0.6,0.6,0.9,1.3,0.9,1.9
					c0,2.2-1.3,3-3.2,3.4v0.1c0.5,0.1,0.8,0.5,1,0.8c0.2,0.3,1.3,1.9,1.4,2.1c0.1,0.1,1.2,1.7,1.4,1.9c0.4,0.3,0.8,0.4,1.2,0.4
					c0.1,0,0.1,0.1,0.1,0.1v0.4c0,0.1,0,0.1-0.1,0.1c-0.1,0-0.6-0.1-1.7-0.1c-0.5,0-1.2,0-1.5,0.1c-0.2-0.1-0.6-0.6-0.8-1
					c-0.3-0.5-1-1.7-1.2-2c-0.1-0.3-0.6-1.1-0.9-1.4c-0.4-0.6-0.8-1.1-1.5-1.1c-0.1,0-0.4,0-0.6,0L226.3,99"/>
			</g>
			<g>
				<path fill="#FFFFFF" d="M244.3,92h-0.5c-0.6,0-1.8,0-2.5,0.2c-0.6,0.2-1.2,1.4-1.5,1.9c-0.1,0.1-0.1,0.1-0.2,0.1l-0.4-0.1
					c-0.1,0-0.1-0.1-0.1-0.1c0.1-0.6,0.7-2.9,0.8-3.2c0-0.2,0.1-0.3,0.2-0.3c0.1,0,0.1,0.1,0.3,0.1c0.4,0.4,0.7,0.4,1.2,0.4
					c0.9,0,1.7,0.1,3.3,0.1h0.9c1.9,0,2.6-0.1,3.4-0.1c0.3,0,1-0.3,1.2-0.4c0.1-0.1,0.2-0.1,0.3-0.1c0.1,0,0.1,0.1,0.2,0.3
					c0,0.3,0.4,2.5,0.5,3.2c0,0.1,0,0.1-0.1,0.1l-0.4,0.1c-0.1,0-0.1-0.1-0.1-0.1c-0.2-0.5-0.9-1.6-1.4-1.9c-0.5-0.3-2-0.3-2.7-0.3
					h-0.5v9.2c0,1.3,0.1,1.7,0.6,1.7h1c0.1,0,0.1,0.1,0.1,0.1v0.4c0,0.1-0.1,0.1-0.2,0.1c-0.1,0-0.7-0.1-2.6-0.1
					c-1.8,0-2.5,0.1-2.7,0.1c-0.1,0-0.1,0-0.1-0.1v-0.4c0-0.1,0.1-0.1,0.1-0.1h1c0.4,0,0.6-0.2,0.6-0.4c0.1-0.4,0.1-5.7,0.1-6.1
					L244.3,92L244.3,92z"/>
			</g>
		</g>
		<g>
			<g>
				<path fill="#FFFFFF" d="M57.5,100.5c0.1,0.1,0.1,0.1,0.1,0.1c-1,1.5-2.7,2.9-5.1,2.9c-2.2,0-3.5-0.6-4.5-1.6
					c-1.3-1.2-1.9-3.1-1.9-4.7c0-1.7,0.6-3.3,1.7-4.6c0.9-1,2.4-1.8,4.5-1.8c1.6,0,2.8,0.5,3.5,0.9c0.2,0.1,0.3,0.1,0.4,0l0.2-0.4
					c0-0.1,0.1-0.1,0.3-0.1s0.2,0,0.2,0.3c0,0.3,0.4,3,0.4,3.6c0,0.1,0,0.1-0.1,0.1l-0.4,0.1c-0.1,0-0.1,0-0.2-0.1
					c-0.2-0.6-0.6-1.5-1.4-2.2c-0.7-0.7-1.7-1.3-3-1.3c-2.7,0-3.9,2.5-3.9,5c0,1.1,0.3,3.1,1.6,4.5c1.2,1.2,2.2,1.4,3,1.4
					c1.9,0,3.4-0.9,4.1-2c0.1-0.1,0.1-0.1,0.2-0.1L57.5,100.5z"/>
			</g>
			<g>
				<path fill="#FFFFFF" d="M69.3,97.9c-0.1-0.5-1.3-4.4-1.4-4.8c-0.1-0.2-0.1-0.3-0.1-0.3c-0.1,0-0.1,0.1-0.2,0.2
					c-0.1,0.2-1.6,4.5-1.7,4.8H69.3z M65.5,98.6c-0.1,0.4-1,2.9-1.1,3.3c0,0.1,0,0.3,0,0.4c0,0.2,0.3,0.4,0.6,0.4h0.7
					c0.1,0,0.1,0,0.1,0.1v0.4c0,0.1,0,0.1-0.1,0.1c-0.2,0-0.9-0.1-2.2-0.1c-1.3,0-1.7,0.1-1.9,0.1c-0.1,0-0.1-0.1-0.1-0.2v-0.3
					c0-0.1,0-0.1,0.1-0.1h0.5c0.5,0,0.8-0.2,1.1-0.8c0.1-0.3,1.4-3.4,1.9-4.8c0.1-0.4,1.5-4,1.7-4.5c0.1-0.1,0.1-0.5,0.1-0.6
					s-0.1-0.1-0.1-0.2s0.1-0.1,0.1-0.1c0.6-0.1,1.5-0.6,1.7-0.9c0.1-0.1,0.1-0.1,0.3-0.1c0.1,0,0.1,0.2,0.2,0.3
					c0.3,1.1,1.7,4.9,1.9,6.1c0.4,1.4,1.5,4.5,1.7,5c0.3,0.6,0.8,0.8,1.1,0.8h0.6c0.1,0,0.1,0,0.1,0.1v0.4c0,0.1-0.1,0.2-0.1,0.2
					c-0.3,0-0.6-0.1-2.5-0.1c-1.4,0-2,0.1-2.4,0.1c-0.1,0-0.1-0.1-0.1-0.2v-0.4c0-0.1,0-0.1,0.1-0.1H70c0.5,0,0.6-0.1,0.5-0.6
					c-0.1-0.6-0.8-2.8-1-3.5H65.5"/>
			</g>
			<g>
				<path fill="#FFFFFF" d="M80.7,99.5c0.1,0,0.1,0,0.1,0.1c0.1,0.6,0.1,1.2,0.6,1.9c0.5,0.9,1.4,1.2,2.2,1.2c0.9,0,2.2-0.6,2.2-2
					c0-1.6-0.7-2.1-2.5-2.8c-0.6-0.2-1.7-0.7-2.5-1.4C80.3,96,80,95.1,80,94.1c0-0.9,0.4-1.7,1.2-2.4c0.7-0.6,1.4-0.9,2.5-0.9
					c1.2,0,1.8,0.3,2.2,0.4c0.1,0.1,0.3,0,0.4-0.1l0.2-0.2c0.1-0.1,0.1-0.1,0.2-0.1c0.1,0,0.1,0.1,0.1,0.3c0,0.3,0.3,2.7,0.3,2.9
					c0,0.1,0,0.1-0.1,0.1l-0.3,0.1c-0.1,0-0.1,0-0.1-0.1c-0.1-0.5-0.4-1.2-1.1-1.8c-0.4-0.5-1-0.7-1.8-0.7c-1.4,0-1.9,1.1-1.9,1.7
					c0,0.6,0.1,1.1,0.5,1.5c0.4,0.4,1.4,0.9,2.1,1.1c1,0.3,1.8,0.6,2.5,1.4c0.6,0.6,0.9,1.3,0.9,2.5c0,2.1-1.4,3.8-3.7,3.8
					c-1.4,0-2.2-0.3-2.9-0.8c-0.2-0.1-0.3-0.2-0.4-0.2c-0.1,0-0.1,0.1-0.3,0.3c-0.1,0.1-0.1,0.2-0.3,0.2c-0.1,0-0.2-0.1-0.2-0.3
					c0-0.2,0.3-3,0.3-3.2c0-0.1,0.1-0.1,0.1-0.1L80.7,99.5z"/>
			</g>
			<g>
				<path fill="#FFFFFF" d="M99.4,97.8c0,0.1,0,4.1,0,4.3c0,0.6,0.3,0.6,0.7,0.6h0.7c0.1,0,0.1,0,0.1,0.1v0.4c0,0.1-0.1,0.1-0.1,0.1
					c-0.2,0-0.9-0.1-2.5-0.1c-1.7,0-2.5,0.1-2.7,0.1c-0.1,0-0.1,0-0.1-0.1v-0.5c0-0.1,0-0.1,0.1-0.1h0.6c0.4,0,0.7,0,0.8-0.5
					c0.1-0.2,0.1-4,0.1-4.9v-1.2c0-0.4,0-3.5-0.1-3.8c-0.1-0.4-0.2-0.6-0.7-0.6h-0.9c-0.1,0-0.1,0-0.1-0.1v-0.4c0-0.1,0-0.1,0.1-0.1
					c0.2,0,1.1,0.1,2.7,0.1c1.7,0,2.2-0.1,2.5-0.1c0.1,0,0.1,0.1,0.1,0.1v0.4c0,0.1-0.1,0.1-0.1,0.1H100c-0.4,0-0.6,0.1-0.6,0.4
					c0,0.1,0,4,0,4.2V97.8L99.4,97.8z"/>
			</g>
			<g>
				<path fill="#FFFFFF" d="M111.1,95.5c0,3,0.1,5.3,0.1,5.8c0.1,0.9,0.2,1.3,0.9,1.3h0.4c0.1,0,0.1,0.1,0.1,0.1v0.4
					c0,0.1,0,0.1-0.1,0.1c-0.1,0-1.2-0.1-1.9-0.1c-0.4,0-1.6,0.1-1.8,0.1c-0.1,0-0.1,0-0.1-0.1v-0.4c0,0,0-0.1,0.1-0.1h0.6
					c0.4,0,0.6-0.4,0.8-1.4c0-0.3,0.1-2.7,0.1-5.5v-2.2c0-1-0.6-1.8-1.4-1.8h-0.6c-0.1,0-0.1-0.1-0.1-0.1v-0.4c0-0.1,0-0.1,0.1-0.1
					c0.1,0,0.2,0,0.5,0c0.3,0,0.8,0,1.5,0c0.3,0,0.6,0,0.8-0.1c0.2,0,0.4,0,0.5,0c0.2,0,0.3,0.1,0.4,0.1c0.1,0.1,3.5,4.4,3.9,4.9
					c0.2,0.3,2.9,3.6,3.2,4h0.1v-1.8c0-1.5,0-2.4,0-3.2c-0.1-0.6-0.1-2.3-0.2-2.6c-0.1-0.4-0.5-0.6-0.9-0.6h-0.6
					c-0.1,0-0.1-0.1-0.1-0.1v-0.4c0-0.1,0-0.1,0.1-0.1c0.2,0,0.7,0.1,1.9,0.1c1,0,1.4-0.1,1.7-0.1c0.1,0,0.1,0.1,0.1,0.1v0.4
					c0,0.1,0,0.1-0.1,0.1h-0.5c-0.4,0-0.5,0.3-0.6,0.9c-0.1,1.2-0.3,4-0.3,5.8v4.5c0,0.2,0,0.5-0.2,0.5c-0.2,0-0.4-0.1-0.6-0.3
					c-0.1-0.1-1.1-1.2-2.2-2.5c-1.2-1.5-2.5-3.1-2.7-3.4c-0.2-0.2-3-3.7-3.2-3.9h0V95.5L111.1,95.5z"/>
			</g>
			<g>
				<path fill="#FFFFFF" d="M131.1,92.6c-1.1,1-1.5,2.8-1.5,4.2c0,4.5,2.7,6.1,4.2,6.1c3.5,0,4-3.8,4-5.3c0-3.7-2.5-5.9-4.2-5.9
					C133.3,91.6,132.3,91.4,131.1,92.6z M137.7,92.2c1.3,1.1,2.3,2.7,2.3,5.1c0,1.3-0.4,2.6-1.3,3.7c-1.1,1.4-2.6,2.5-5.1,2.5
					c-1,0-2.5-0.3-3.9-1.2c-1.2-0.7-2.5-2.6-2.5-5c0-1,0.3-2.7,1.6-4.3c1.5-1.9,3.4-2.2,4.8-2.2C134.9,90.8,136.3,91.1,137.7,92.2"
					/>
			</g>
		</g>
	</g>
</g>
</svg>
