<svg viewBox="0 0 331 259" xmlns="http://www.w3.org/2000/svg" fill-rule="evenodd" clip-rule="evenodd" stroke-linejoin="round" stroke-miterlimit="1.41"><path d="M182.73 223.77l43.16-24.92-11.2-19.92-33.8 1.9-36.1 20.84 37.8 22.1z" fill="#b83f97"/><path d="M166.06 141.73l4.52-16.03-5.58-1.57-38.1-10.72c-.12-.4-.22-.8-.33-1.3.75 3.1 1.5 6.2 2.2 9.2 1.67 7.7 4.33 17.2 2.2 22.5h.03l35.07-1.9zm-58.1 3.27l9.52-.56c-10.96-8.24-41.3-55.47-45.06-59.9 1.17 5.46 4.8 34.1-2.45 34.55-.66 0-4.2-.1-8.43-.8-5.5-.9-19.1-3.5-43.68-12.8.23.4 5.84 10.9 9.1 18.7.58 1.4 1.88 4.5 2.7 7l23.1 6.5 27.6 7.7 9.8 2.74 18.26 5.14-.47-8.45z" fill="#b83f97" fill-rule="nonzero"/><path d="M108.42 153.46l-18.26-5.14-47.2 47.2c7.1 4.92 28.45 22.16 31.48 24.9l22.8-22.8 12.37-22.97-1.1-21.2z" fill="#da2032" fill-rule="nonzero"/><path d="M262.64 164.77L235.8 116.9c-3.2 4.55-14.33 20.65-21.92 27.2-6.57 5.7-17 6.03-14.3-10.24l-12.03-3.38 39.03 69.6.28.5.12.22 18.2 32.45c1.1-4.48 12.35-14.36 31.15-28.9l5.9-4.52c.02 0 .03-.02.05-.03l-19.64-35.03z" fill="#da2032"/><path d="M223.64 35.13c-7.18 6.2-13.45 11.57-18.88 14.88.1 0 .2-.1.3-.1l13.34 7.3c1.88-7.5 3.66-14.9 5.24-22zm-56.2 48.27c16.8 4.72 31.42 8.85 32.6 9.18l.07.02-27-14.83-5.6 5.63z" fill="#da2032" fill-rule="nonzero"/><path d="M297.63 147.34c-.2 0-7.33-.5-15.96-1.07l-19.03 18.5 19.64 35.03-.05.03c3.52-2.65 47.8-35.63 48.7-36.34-29.24-.6-34.78-4.6-33.3-16.2zM227 200.8l-.14-.22-.28-.5-.1-.18-31.76 30.87 40.88 23.86c3.42.76 9.94 2.27 13.67 2.75-3.77-11.67-4.4-23.07-4.1-24.13L227 200.8z" fill="#f36d24"/><path d="M29.66 131.3c3.8 10.6 4.22 19.88 3.53 22.42-2.3 8.12-14.7 9.34-33.2 9.77 8.1 6.2 38.1 28.4 38.2 28.5l6.8-25.4 7.7-28.9-23.1-6.5zm169.9 2.56c2.74-14.76 8.6-36.86 8.6-36.86l-8.04-4.4-.06-.02-32.6-9.18-18.73-5.28-33.2-9.35c2.35 8.97 8.5 32.7 11.4 44.64.14.1 19.44 5.5 38.1 10.8 17.5 4.9 34.44 9.7 34.58 9.8z" fill="#f36d24" fill-rule="nonzero"/><path d="M281.68 146.27c8.62.58 15.76 1.06 15.95 1.06 1.2-12.55 7.26-26.84 15.45-41.75-23.93 8.9-40.55 13.37-52.15 13.47-5.8.03-4.72-23.3-2.43-34.5-5.58 7.57-16.54 23.45-22.7 32.35l15.3 27.32 30.58 2.05z" fill="#0bb14d"/><path d="M148.98 185.65l-5.1-2.75-33.7 1.9-.57-10.15-12.3 22.97-15.8 29.4c2.8 3 4.5 5.32 4.5 6.8-.03 5.8-1.6 15.95-4.2 23.56 11.1-1.76 24.7-5.5 32.78-7.56l18.4-34.17 8.6-15.98 7.58-14.02z" fill="#0bb14d" fill-rule="nonzero"/><path d="M173.08 77.77L200.1 92.6l8.04 4.4c3.98-15.5 7.94-30.53 10.26-39.86l-13.34-7.3c-5.32 3.46-9.06 3.6-9.95 3.65-4.6.2-11.5-5.7-17.8-19l-19-10.4c-1 2.7-6.4 16.3-12 22.6-1.5 1.7-5.5 6.8-10.4 6.7-7.2-.1-16.6-8.1-28.5-18.4l1.7 7.5 48.7 26.7 15.45 8.46z" fill="#0bb14d"/><path d="M235.6 254.63l-40.88-23.86-53.3-31.1-8.6 15.98-10.3 19.14 15.52 9s9.14-4.1 12.56-.7c4.65 4.6.5 13.6.5 13.6h27.96s-3.8-8.9.9-13.6c3.9-3.9 19.55 2.2 24.55 3.6 10.1 2.8 25.5 6.7 31.1 7.9zM157.64 69.3L109 42.62c2 8.47 4.2 17.25 6.5 26.16.05 0 15.5 4.36 33.2 9.34l8.94-8.82zm-112.6 97.35l6.87 6.98 28.5-28.07-27.6-7.77-7.7 28.8zm63.38-13.2l1.2 21.2.56 10.14 33.7-1.9 37.1-2.1 33.74-1.9-21.7-38.7-26.96 1.5-35.06 2h-.03c-2.16 5.1-8.56 5.3-13.5.7l-9.52.5.47 8.4zM165.47.65c-1.12 5.44-4.44 16.46-7.24 23.5l19.02 10.44c-4.57-9-9.1-22.5-11.78-34z" fill="#1ca9e1" fill-rule="nonzero"/></svg>